<svg width="24" height="28" viewBox="0 0 24 28" fill="none" xmlns="http://www.w3.org/2000/svg">
<path d="M22.2866 5.45565H17.4797V1.9879C17.4797 1.64301 17.3416 1.31225 17.0957 1.06838C16.8498 0.824506 16.5164 0.6875 16.1687 0.6875C15.821 0.6875 15.4876 0.824506 15.2417 1.06838C14.9958 1.31225 14.8577 1.64301 14.8577 1.9879V5.45565H8.73984V1.9879C8.73984 1.64301 8.60172 1.31225 8.35586 1.06838C8.11001 0.824506 7.77655 0.6875 7.42886 0.6875C7.08117 0.6875 6.74772 0.824506 6.50186 1.06838C6.25601 1.31225 6.11789 1.64301 6.11789 1.9879V5.45565H1.37106C0.480691 5.45565 0 6.12535 0 6.75605C0 7.10094 0.13812 7.4317 0.383976 7.67557C0.629831 7.91945 0.963283 8.05645 1.31098 8.05645H2.62195V18.0262C2.6234 19.2904 3.1303 20.5023 4.03146 21.3962C4.93262 22.2901 6.15443 22.7929 7.42886 22.7944H10.4878V26.2621C10.4878 26.607 10.6259 26.9377 10.8718 27.1816C11.1176 27.4255 11.4511 27.5625 11.7988 27.5625C12.1465 27.5625 12.4799 27.4255 12.7258 27.1816C12.9716 26.9377 13.1098 26.607 13.1098 26.2621V22.7944H16.1687C17.4431 22.7929 18.6649 22.2901 19.5661 21.3962C20.4673 20.5023 20.9742 19.2904 20.9756 18.0262V8.05645H22.2866C22.6343 8.05645 22.9677 7.91945 23.2136 7.67557C23.4594 7.4317 23.5976 7.10094 23.5976 6.75605C23.5976 6.41116 23.4594 6.0804 23.2136 5.83652C22.9677 5.59265 22.6343 5.45565 22.2866 5.45565ZM18.3537 18.0262C18.3537 18.601 18.1235 19.1523 17.7137 19.5588C17.3039 19.9652 16.7482 20.1936 16.1687 20.1936H7.42886C6.84937 20.1936 6.29362 19.9652 5.88386 19.5588C5.4741 19.1523 5.2439 18.601 5.2439 18.0262V8.05645H18.3537V18.0262ZM8.97363 14.8651C8.85371 14.6931 8.7774 14.4949 8.75115 14.2874C8.72491 14.0799 8.74951 13.8692 8.82287 13.6731L10.1338 10.2054C10.1942 10.0454 10.2858 9.89882 10.4033 9.77397C10.5208 9.64912 10.662 9.54845 10.8187 9.47771C10.9755 9.40697 11.1447 9.36754 11.3168 9.36168C11.4889 9.35582 11.6605 9.38364 11.8217 9.44355C11.983 9.50346 12.1308 9.59429 12.2566 9.71086C12.3825 9.82742 12.484 9.96744 12.5553 10.1229C12.6266 10.2784 12.6664 10.4463 12.6723 10.617C12.6782 10.7877 12.6501 10.9579 12.5897 11.1178L11.943 12.8246H13.5467C13.7586 12.8246 13.9672 12.8754 14.1549 12.9728C14.3426 13.0703 14.5037 13.2113 14.6244 13.384C14.7451 13.5567 14.8218 13.7558 14.848 13.9643C14.8741 14.1728 14.849 14.3845 14.7747 14.5812L14.1192 16.3151L13.4637 18.049C13.3417 18.372 13.0954 18.6338 12.7788 18.7766C12.6221 18.8474 12.4529 18.8868 12.2808 18.8927C12.1087 18.8985 11.9371 18.8707 11.7758 18.8108C11.6146 18.7509 11.4668 18.66 11.3409 18.5435C11.2151 18.4269 11.1136 18.2869 11.0423 18.1314C10.8982 17.8174 10.8858 17.4596 11.0078 17.1365L11.6546 15.4254H10.0508C9.83899 15.4253 9.63035 15.3743 9.44275 15.2767C9.25516 15.1791 9.09419 15.0379 8.97363 14.8651Z" fill="#F9FFFE"/>
</svg>
