<svg width="56" height="50" viewBox="0 0 56 50" fill="none" xmlns="http://www.w3.org/2000/svg">
<path d="M5.5 50C4.125 50 2.94833 49.5108 1.97 48.5325C0.991667 47.5542 0.501667 46.3767 0.5 45V10C0.5 8.625 0.99 7.44833 1.97 6.47C2.95 5.49167 4.12667 5.00167 5.5 5H23C23.7083 5 24.3025 5.24 24.7825 5.72C25.2625 6.2 25.5017 6.79333 25.5 7.5C25.4983 8.20667 25.2583 8.80083 24.78 9.2825C24.3017 9.76417 23.7083 10.0033 23 10H5.5V45H40.5V32.5C40.5 31.7917 40.74 31.1983 41.22 30.72C41.7 30.2417 42.2933 30.0017 43 30C43.7067 29.9983 44.3008 30.2383 44.7825 30.72C45.2642 31.2017 45.5033 31.795 45.5 32.5V45C45.5 46.375 45.0108 47.5525 44.0325 48.5325C43.0542 49.5125 41.8767 50.0017 40.5 50H5.5ZM13 22.5C12.2917 22.5 11.6983 22.74 11.22 23.22C10.7417 23.7 10.5017 24.2933 10.5 25V37.5C10.5 38.2083 10.74 38.8025 11.22 39.2825C11.7 39.7625 12.2933 40.0017 13 40C13.7067 39.9983 14.3008 39.7583 14.7825 39.28C15.2642 38.8017 15.5033 38.2083 15.5 37.5V25C15.5 24.2917 15.26 23.6983 14.78 23.22C14.3 22.7417 13.7067 22.5017 13 22.5ZM23 15C22.2917 15 21.6983 15.24 21.22 15.72C20.7417 16.2 20.5017 16.7933 20.5 17.5V37.5C20.5 38.2083 20.74 38.8025 21.22 39.2825C21.7 39.7625 22.2933 40.0017 23 40C23.7067 39.9983 24.3008 39.7583 24.7825 39.28C25.2642 38.8017 25.5033 38.2083 25.5 37.5V17.5C25.5 16.7917 25.26 16.1983 24.78 15.72C24.3 15.2417 23.7067 15.0017 23 15ZM33 30C32.2917 30 31.6983 30.24 31.22 30.72C30.7417 31.2 30.5017 31.7933 30.5 32.5V37.5C30.5 38.2083 30.74 38.8025 31.22 39.2825C31.7 39.7625 32.2933 40.0017 33 40C33.7067 39.9983 34.3008 39.7583 34.7825 39.28C35.2642 38.8017 35.5033 38.2083 35.5 37.5V32.5C35.5 31.7917 35.26 31.1983 34.78 30.72C34.3 30.2417 33.7067 30.0017 33 30ZM43 25C41.75 25 40.5208 24.8125 39.3125 24.4375C38.1042 24.0625 36.9792 23.5208 35.9375 22.8125L35 23.6875C34.5 24.1458 33.9058 24.375 33.2175 24.375C32.5292 24.375 31.9567 24.1458 31.5 23.6875C31.0433 23.2292 30.8142 22.6458 30.8125 21.9375C30.8108 21.2292 31.04 20.6458 31.5 20.1875L32.5 19.1875C31.8333 18.1875 31.3333 17.125 31 16C30.6667 14.875 30.5 13.7083 30.5 12.5C30.5 9.04167 31.7192 6.09417 34.1575 3.6575C36.5958 1.22083 39.5433 0.00166667 43 0H53C53.7083 0 54.3025 0.24 54.7825 0.72C55.2625 1.2 55.5017 1.79333 55.5 2.5V12.5C55.5 15.9583 54.2808 18.9067 51.8425 21.345C49.4042 23.7833 46.4567 25.0017 43 25ZM43 20C45.0833 20 46.8542 19.2708 48.3125 17.8125C49.7708 16.3542 50.5 14.5833 50.5 12.5V5H43C40.9167 5 39.1458 5.72917 37.6875 7.1875C36.2292 8.64583 35.5 10.4167 35.5 12.5C35.5 13.0417 35.5525 13.5625 35.6575 14.0625C35.7625 14.5625 35.9183 15.0625 36.125 15.5625L42.625 9.0625C43.0833 8.60417 43.6667 8.375 44.375 8.375C45.0833 8.375 45.6667 8.60417 46.125 9.0625C46.625 9.5625 46.875 10.1567 46.875 10.845C46.875 11.5333 46.625 12.1267 46.125 12.625L39.625 19.125C40.1667 19.375 40.7192 19.5833 41.2825 19.75C41.8458 19.9167 42.4183 20 43 20Z" fill="#205149"/>
</svg>
