<svg width="60" height="60" viewBox="0 0 60 60" fill="none" xmlns="http://www.w3.org/2000/svg">
<path d="M15.225 37.4976C14.2516 35.2976 13.7492 32.9183 13.75 30.5126C13.75 21.2501 21.025 13.7476 30 13.7476C38.975 13.7476 46.25 21.2526 46.25 30.5126C46.2508 32.9183 45.7484 35.2976 44.775 37.4976M30 4.99756V7.49756M55 29.9976H52.5M7.5 29.9976H5M47.675 12.3201L45.9075 14.0876M14.0925 14.0901L12.325 12.3226M36.2925 48.2651C38.8175 47.4476 39.8325 45.1351 40.1175 42.8101C40.2025 42.1151 39.63 41.5376 38.93 41.5376H21.1925C21.0216 41.5348 20.852 41.5684 20.695 41.6361C20.538 41.7039 20.3972 41.8041 20.2819 41.9303C20.1665 42.0565 20.0793 42.2058 20.026 42.3682C19.9727 42.5307 19.9544 42.7026 19.9725 42.8726C20.2525 45.1926 20.9575 46.8876 23.6325 48.2626M36.2925 48.2651L23.6325 48.2626M36.2925 48.2651C35.99 53.1276 34.585 55.0526 30.0175 54.9976C25.1325 55.0876 24.0075 52.7051 23.6325 48.2626" stroke="#205149" stroke-width="3.75" stroke-linecap="round" stroke-linejoin="round"/>
</svg>
