<svg width="60" height="60" viewBox="0 0 60 60" fill="none" xmlns="http://www.w3.org/2000/svg">
<path d="M17.5002 30.0001H42.5002M30.0002 30.0001V15.0001M29.3527 19.3526C30.7252 15.5076 29.9177 11.1076 26.9052 8.09512C23.8927 5.08262 19.4927 4.27512 15.6502 5.64512C14.2777 9.49262 15.0852 13.8951 18.0977 16.9051C21.1102 19.9176 25.5102 20.7251 29.3552 19.3551M18.7927 30.0001H9.74266C8.67266 30.0001 8.13516 30.0001 7.80516 30.3426C7.47266 30.6851 7.48516 31.2151 7.51266 32.2726C7.53766 33.3501 7.60016 34.4226 7.74516 35.4926C7.80766 35.9351 7.83766 36.1576 7.98266 36.2701C8.12766 36.3851 8.39016 36.3526 8.91766 36.2926C11.8352 35.9501 14.6552 38.3326 14.6552 41.4601C14.6552 43.0176 13.9802 44.4176 12.9152 45.3726C12.5252 45.7226 12.3302 45.8976 12.3152 46.0801C12.3002 46.2626 12.4452 46.4351 12.7252 46.7776C13.7452 48.0201 14.8927 49.1501 16.1452 50.1476C16.4452 50.3851 16.5927 50.5026 16.7552 50.4976C16.9177 50.4926 17.0852 50.3451 17.4177 50.0476C18.3177 49.2401 19.5002 48.7526 20.7927 48.7526C23.5652 48.7526 25.7852 51.0726 25.9027 53.7626C25.9202 54.2101 25.9302 54.4326 26.0402 54.5551C26.1477 54.6751 26.3327 54.7051 26.7027 54.7601C28.8893 55.0804 31.111 55.0804 33.2977 54.7601C33.6677 54.7026 33.8527 54.6751 33.9602 54.5551C34.0702 54.4326 34.0802 54.2101 34.0977 53.7626C34.2152 51.0726 36.4352 48.7526 39.2077 48.7526C40.5002 48.7526 41.6827 49.2401 42.5827 50.0451C42.9152 50.3451 43.0827 50.4951 43.2452 50.4976C43.4077 50.5001 43.5577 50.3851 43.8552 50.1476C45.1077 49.1476 46.2552 48.0176 47.2752 46.7776C47.5552 46.4351 47.6977 46.2626 47.6827 46.0776C47.6677 45.8951 47.4727 45.7201 47.0827 45.3726C46.5344 44.8791 46.0964 44.2756 45.797 43.6015C45.4976 42.9274 45.3437 42.1977 45.3452 41.4601C45.3452 38.3326 48.1652 35.9501 51.0827 36.2926C51.6077 36.3526 51.8727 36.3851 52.0177 36.2701C52.1627 36.1576 52.1927 35.9351 52.2552 35.4951C52.4002 34.4226 52.4627 33.3501 52.4877 32.2726C52.5127 31.2151 52.5277 30.6851 52.1952 30.3426C51.8652 30.0001 51.3277 30.0001 50.2577 30.0001H41.2077C40.6902 35.8401 35.8702 40.4176 30.0002 40.4176C24.1302 40.4176 19.3102 35.8426 18.7927 30.0001ZM30.5402 24.4601C29.3952 21.2576 30.0677 17.5901 32.5802 15.0776C35.0927 12.5651 38.7552 11.8951 41.9602 13.0401C43.1052 16.2426 42.4327 19.9101 39.9227 22.4226C37.4127 24.9351 33.7427 25.6051 30.5402 24.4601Z" stroke="#205149" stroke-width="3.75" stroke-linecap="round" stroke-linejoin="round"/>
</svg>
